<?xml version="1.0" encoding="UTF-8"?>
<svg id="Camada_1" xmlns="http://www.w3.org/2000/svg" version="1.1" viewBox="0 0 700 280">
  <!-- Generator: Adobe Illustrator 29.5.1, SVG Export Plug-In . SVG Version: 2.1.0 Build 141)  -->
  <defs>
    <style>
      .st0 {
        fill: #42498d;
      }

      .st0, .st1 {
        fill-rule: evenodd;
      }

      .st1, .st2 {
        fill: #ed761b;
      }

      .st3 {
        fill: #1d1d1b;
      }

      .st4 {
        fill: #eb1d25;
      }
    </style>
  </defs>
  <g>
    <path class="st2" d="M694.3,93.1c0,4.4-3.5,7.8-8,7.8s-8-3.5-8-7.8,3.5-7.7,8-7.7,8,3.5,8,7.7ZM680.2,93.1c0,3.5,2.6,6.2,6,6.2s5.9-2.8,5.9-6.1-2.6-6.3-5.9-6.3-6,2.8-6,6.2ZM685.1,97.2h-1.8v-7.7c.7-.2,1.7-.3,3-.3s2.1.3,2.8.6c.4.4.8,1,.8,1.7s-.7,1.5-1.6,1.8h0c.8.4,1.1,1,1.4,2,.3,1.1.4,1.6.6,2h-2c-.3-.3-.4-1-.6-1.9-.2-.9-.6-1.1-1.6-1.1h-.9v3.1h0v-.2ZM685.1,92.8h.9c1,0,1.8-.4,1.8-1.1s-.5-1.1-1.6-1.1-.8,0-1,0v2.2h0Z"/>
    <path class="st0" d="M505.2,111.8l6.8-4.8c-6.2-11-18.6-18.4-32-19.2-10.4-.6-20.7,1-28.9,6.6-16.4,11.2-16.2,34.3-1.2,44.9,5.2,3.7,13.5,7.1,20.2,10.2,7.2,3.5,15.3,6.9,19.5,13.6,6.3,10.1,3.7,24.5-9.4,29.3-11.2,4-26.4,0-32.2-11.3l-7.1,5.2c8.3,13,27.3,17.2,42.8,14.7,12.5-2,22.2-9.2,26.6-18.8l-7.6,19.4,9.7-.2,30.2-77,30,76.7h21.6l-12-29.4c16.6,35.7,68,37.1,99.9,13.4v-39.2l-24-.2v40.5c-13.7,13.4-36.7,12.9-49.4-10.6-9-16.3-12.1-43.2-.6-63.9,12.2-22,45-23.1,63.3,2.3,1.8-1.4,3.9-3.6,5.7-5.1-37.6-44.9-104.6-13.3-100.1,42.3.4,5.8,1.6,11.1,3.3,15.8l-32.4-79.6-36.4,91.8c2-5.9,2-12.8-.4-19.7-3.3-9.2-9.6-15-18.7-19.7-6.6-3.5-13.4-6.4-20.2-9.3-14.2-6.2-17.9-26.7-.6-32.8,11.7-4.1,28.9,1,34,13.7"/>
    <path class="st1" d="M487.1,45.3c15.5-5.1,31.5-7.4,46.8-6.8-12.8.2-25.7,2.4-38.5,6.7-67.6,22.6-104.1,95.9-81.7,163.8,3.9,12,9.4,23,16.2,32.9-11.3-11.9-20.2-26.2-25.6-42.6-20.8-62.7,16.3-131.6,82.8-153.7"/>
    <g>
      <g>
        <path class="st2" d="M447.7,222.9s0,.2-.2.2h-.3s-.2,0-.4-.2c0,0-.3-.2-.5-.4-.2,0-.4-.3-.7-.4s-.6-.2-1-.2-.7,0-1,.2c-.3,0-.5.3-.7.4s-.4.4-.4.6-.2.5-.2.8,0,.6.3.9c.2.3.4.4.7.6s.6.3,1,.4c.4,0,.7.3,1,.4.4,0,.7.3,1,.4.4.2.7.4,1,.6s.5.5.7.9.3.8.3,1.2,0,1-.3,1.4c-.2.4-.4.9-.8,1.1s-.8.6-1.2.8-1.1.3-1.7.3-1.4-.2-2.1-.4-1.1-.7-1.6-1.1l.5-.8.2-.2h.3s.3,0,.4.2c.2,0,.4.3.6.4.3.2.5.3.9.4.4,0,.7.2,1.1.2s.8,0,1-.2c.4,0,.6-.3.8-.4.2-.2.4-.4.5-.7,0-.3.2-.6.2-1s0-.7-.3-.9-.4-.4-.7-.6-.6-.3-1-.4c-.4,0-.7-.3-1-.4-.4,0-.7-.3-1-.4-.4-.2-.7-.4-1-.6s-.5-.5-.7-1c-.2-.4-.3-.8-.3-1.3s0-.9.3-1.1c.2-.4.4-.8.7-1s.7-.5,1.1-.8c.4-.2,1-.3,1.6-.3s1.2,0,1.9.4,1,.5,1.4,1l-.4.8h-.2v.3Z"/>
        <path class="st2" d="M462.1,227.1c0,1-.2,1.7-.4,2.5s-.7,1.3-1.1,2-1.1,1-1.9,1.2c-.8.4-1.5.4-2.4.4s-1.7-.2-2.4-.4c-.8-.3-1.3-.7-1.9-1.2s-1-1.1-1.1-2-.4-1.5-.4-2.5.2-1.7.4-2.5.7-1.3,1.1-2c.5-.5,1.1-1,1.9-1.2s1.5-.4,2.4-.4,1.7.2,2.4.4c.8.4,1.3.8,1.9,1.2s1,1.1,1.1,2,.4,1.5.4,2.5ZM460.3,227.1c0-.8,0-1.3-.4-2-.2-.6-.5-1.1-.9-1.4-.4-.4-.9-.7-1.3-1s-1.1-.4-1.8-.4-1.1,0-1.8.4c-.5.3-1,.5-1.3,1-.4.4-.7,1-.9,1.4-.2.6-.4,1.2-.4,2s0,1.3.4,2c.2.6.5,1.1.9,1.4.4.4.9.7,1.3,1s1.1.4,1.8.4,1.1,0,1.8-.4,1-.5,1.3-1,.7-1,.9-1.4c.2-.6.4-1.2.4-2Z"/>
        <path class="st2" d="M471.1,221.1v1.3h-5.8v4.2h5v1.3h-5v5.1h-1.6v-12h7.4Z"/>
        <path class="st2" d="M482.3,221.1v1.3h-3.9v10.7h-1.6v-10.7h-3.9v-1.3h9.4Z"/>
        <path class="st2" d="M484,221.1h1.7s.2.2.2.3l2.5,8.3v1-.5c0-.2,0-.4.2-.5l2.8-8.3s0-.2.2-.3h1.2s.2.2.2.3l2.8,8.3c0,.3.2.6.3,1v-1l2.5-8.3s0-.2.2-.3h1.6l-3.7,12h-1.4l-3.1-9.1c0-.2,0-.4-.2-.6v.6l-3.1,9.1h-1.4l-3.7-12h.3Z"/>
        <path class="st2" d="M511.5,233h-1.6c0,0-.2-.2-.2-.3l-1.1-2.9h-5.3l-1.1,2.9s0,.2-.2.3h-1.6l4.8-12h1.6l4.8,12h0ZM503.6,228.6h4.5l-1.9-4.9c0-.4-.3-.7-.4-1.1,0,.3,0,.4-.2.6s0,.4-.2.5l-1.9,4.9h0Z"/>
        <path class="st2" d="M514.9,228v5.1h-1.6v-12h3.4c.8,0,1.4,0,2,.3.5.2,1,.4,1.3.7.4.3.6.7.8,1,.2.4.3.9.3,1.3s0,.9-.2,1.1-.4.7-.6,1c-.3.3-.6.5-1,.8s-.8.4-1.2.5c.2,0,.4.3.5.5l3.5,4.8h-1.4c-.3,0-.5,0-.7-.4l-3.1-4.3c0-.2-.2-.3-.4-.3h-1.6l.2-.2h-.2ZM514.9,226.8h1.7c.5,0,.9,0,1.2-.2.4,0,.7-.3,1-.5s.4-.4.5-.8c0-.3.2-.6.2-1,0-.7-.3-1.2-.7-1.6-.5-.4-1.1-.5-2.1-.5h-1.8v4.5h0Z"/>
        <path class="st2" d="M531.2,221.1v1.3h-5.8v4h4.7v1.2h-4.7v4.1h5.8v1.3h-7.4v-12h7.4Z"/>
      </g>
      <g>
        <path class="st2" d="M547.6,233h-1.6c0,0-.2-.2-.2-.3l-1.1-2.9h-5.3l-1.1,2.9s0,.2-.2.3h-1.6l4.8-12h1.6l4.8,12h0ZM539.7,228.5h4.5l-1.9-4.9c0-.4-.3-.7-.4-1.1,0,.3,0,.4-.2.6s0,.4-.2.5l-1.9,4.9h0Z"/>
        <path class="st2" d="M555.2,231.8h.9c.3,0,.5,0,.8-.2.3,0,.4-.2.7-.3.2,0,.4-.2.6-.3v-2.7h-2.2v-1.1h3.6v4.6c-.4.3-.6.4-1,.6-.4.2-.7.3-1,.4-.4,0-.8.2-1.1.3h-1.3c-.9,0-1.7-.2-2.4-.4s-1.3-.7-1.9-1.2c-.5-.5-1-1.1-1.1-2s-.4-1.6-.4-2.5.2-1.8.4-2.5c.3-.8.7-1.3,1.1-2,.5-.5,1.1-1,2-1.2.8-.3,1.6-.4,2.6-.4h1.3c.4,0,.8.2,1.1.4s.7.3,1,.5.6.4.9.6l-.4.8c0,.2-.3.3-.4.3h-.3c-.2,0-.3-.2-.5-.3-.2,0-.4-.3-.6-.4s-.5-.2-.9-.3h-1.1c-.7,0-1.2,0-1.9.4-.5.3-1,.5-1.3,1-.4.4-.7,1-.9,1.4s-.4,1.2-.4,2,0,1.4.4,2c.3.6.5,1.1,1,1.5s.9.8,1.3,1,1.1.4,1.8.4h-.3v-.2Z"/>
        <path class="st2" d="M564.9,228v5.1h-1.6v-12h3.4c.8,0,1.4,0,2,.3.5.2,1,.4,1.3.7.4.3.6.7.8,1,.2.4.3.9.3,1.3s0,.9-.2,1.1-.4.7-.6,1c-.3.3-.6.5-1,.8s-.8.4-1.2.5c.2,0,.4.3.5.5l3.5,4.8h-1.4c-.3,0-.5,0-.7-.4l-3.1-4.3c0-.2-.2-.3-.4-.3h-1.6l.2-.2h-.2ZM564.9,226.8h1.7c.5,0,.9,0,1.2-.2.4,0,.7-.3,1-.5s.4-.4.5-.8c0-.3.2-.6.2-1,0-.7-.3-1.2-.7-1.6-.5-.4-1.1-.5-2.1-.5h-1.8v4.5h0Z"/>
        <path class="st2" d="M585.8,227c0,1-.2,1.7-.4,2.5s-.7,1.3-1.1,2-1.1,1-1.9,1.2-1.5.4-2.4.4-1.7-.2-2.4-.4c-.8-.3-1.3-.7-1.9-1.2s-1-1.1-1.1-2c-.3-.8-.4-1.5-.4-2.5s.2-1.7.4-2.5.7-1.3,1.1-2c.5-.5,1.1-1,1.9-1.2s1.5-.4,2.4-.4,1.7.2,2.4.4c.8.4,1.3.8,1.9,1.2.5.5,1,1.1,1.1,2,.3.8.4,1.5.4,2.5ZM584.1,227c0-.8,0-1.3-.4-2-.2-.6-.5-1.1-.9-1.4-.4-.4-.9-.7-1.3-1s-1.1-.4-1.8-.4-1.1,0-1.8.4c-.5.3-1,.5-1.3,1-.4.4-.7,1-.9,1.4-.2.6-.4,1.2-.4,2s0,1.3.4,2c.2.6.5,1.1.9,1.4.4.4.9.7,1.3,1s1.1.4,1.8.4,1.1,0,1.8-.4,1-.5,1.3-1,.7-1,.9-1.4c.2-.6.4-1.2.4-2Z"/>
        <path class="st2" d="M591.1,233h-1.6v-12h1.6v12Z"/>
        <path class="st2" d="M596.5,221.1s.2,0,.3.3l7,9.1v-9.3h1.4v12h-1.1s-.2,0-.3-.3l-6.9-9.1v9.2h-1.4v-12h1.1,0Z"/>
        <path class="st2" d="M619.5,227c0,1-.2,1.7-.4,2.5s-.7,1.3-1.1,1.9c-.5.5-1.1,1-1.9,1.1s-1.5.4-2.4.4h-4.5v-12h4.5c.9,0,1.7.2,2.4.4.8.3,1.3.7,1.9,1.1.5.5,1,1.1,1.1,1.9.3.8.4,1.5.4,2.5h0v.2ZM617.8,227c0-.8,0-1.3-.4-2-.2-.6-.5-1.1-.9-1.4-.4-.4-.9-.7-1.3-1-.5-.2-1.1-.4-1.8-.4h-2.9v9.3h2.9c.7,0,1.1,0,1.8-.4.5-.2,1-.5,1.3-1,.4-.4.7-.9.9-1.4s.4-1.2.4-2v.2Z"/>
        <path class="st2" d="M627.4,231.7c.5,0,1,0,1.3-.3.4-.2.7-.4,1-.7s.5-.7.6-1.1c.2-.4.3-.9.3-1.3v-7.3h1.6v7.3c0,.7,0,1.3-.4,2s-.5,1.1-1,1.5-1,.8-1.5,1-1.2.4-2,.4-1.3,0-2-.4-1.1-.6-1.5-1-.8-1-1-1.5-.4-1.1-.4-2v-7.3h1.6v7.3c0,.5,0,1,.3,1.3.2.4.4.8.6,1.1s.6.5,1,.7c.4.2.9.3,1.3.3h-.2.2Z"/>
        <path class="st2" d="M642.2,222.9s0,.2-.2.2h-.3s-.2,0-.4-.2c0,0-.3-.2-.5-.4-.2,0-.4-.3-.7-.4s-.6-.2-1-.2-.7,0-1,.2c-.3,0-.5.3-.7.4s-.4.4-.4.6-.2.5-.2.8,0,.6.3.9c.2.3.4.4.7.6s.6.3,1,.4c.4,0,.7.3,1,.4s.7.3,1,.4.7.4,1,.6c.3.3.5.5.7.9s.3.8.3,1.2,0,1-.3,1.4-.4.9-.8,1.1-.8.6-1.2.8-1.1.3-1.7.3-1.4-.2-2.1-.4-1.1-.7-1.6-1.1l.5-.8.2-.2h.3s.3,0,.4.2c.2,0,.4.3.6.4s.5.3.9.4c.4,0,.7.2,1.1.2s.8,0,1-.2c.4,0,.6-.3.8-.4s.4-.4.5-.7c0-.3.2-.6.2-1s0-.7-.3-.9-.4-.4-.7-.6-.6-.3-1-.4c-.4,0-.7-.3-1-.4s-.7-.3-1-.4-.7-.4-1-.6-.5-.5-.7-1c-.2-.4-.3-.8-.3-1.3s0-.9.3-1.1c.2-.4.4-.8.7-1s.7-.5,1.1-.8c.4-.2,1-.3,1.6-.3s1.2,0,1.9.4,1,.5,1.4,1l-.4.8h-.2v.3Z"/>
        <path class="st2" d="M654.1,221.1v1.3h-3.9v10.7h-1.6v-10.7h-3.9v-1.3h9.4,0Z"/>
        <path class="st2" d="M658.7,228v5.1h-1.6v-12h3.4c.8,0,1.4,0,2,.3.5.2,1,.4,1.3.7.4.3.6.7.8,1,.2.4.3.9.3,1.3s0,.9-.2,1.1-.4.7-.6,1c-.3.3-.6.5-1,.8s-.8.4-1.2.5c.2,0,.4.3.5.5l3.5,4.8h-1.4c-.3,0-.5,0-.7-.4l-3.1-4.3c0-.2-.2-.3-.4-.3h-1.6l.2-.2h-.2ZM658.7,226.8h1.7c.5,0,.9,0,1.2-.2.4,0,.7-.3,1-.5s.4-.4.5-.8c0-.3.2-.6.2-1,0-.7-.3-1.2-.7-1.6-.5-.4-1.1-.5-2.1-.5h-1.8v4.5h0Z"/>
        <path class="st2" d="M670.7,233h-1.6v-12h1.6v12Z"/>
        <path class="st2" d="M684.8,233h-1.6c0,0-.2-.2-.2-.3l-1.1-2.9h-5.3l-1.1,2.9s0,.2-.2.3h-1.6l4.8-12h1.6l4.8,12h0ZM677,228.5h4.5l-1.9-4.9c0-.4-.3-.7-.4-1.1,0,.3,0,.4-.2.6s0,.4-.2.5l-1.9,4.9h0Z"/>
        <path class="st2" d="M689.1,231.7h5.1v1.3h-6.8v-12h1.6v10.7h0Z"/>
      </g>
    </g>
  </g>
  <g>
    <g>
      <path class="st3" d="M44.7,235.3v5.9c0,.4-.3.6-.6.6H7.3c-.4,0-.6-.3-.6-.6v-35.7c0-.4.3-.6.6-.6h36.2c.4,0,.6.3.6.6v5.9c0,.4-.3.6-.6.6H15.6c-.4,0-.6.3-.6.6v6.4c0,.4.3.6.6.6h23.1c.4,0,.6.3.6.6v5.9c0,.4-.3.6-.6.6H15.6c-.4,0-.6.3-.6.6v6.9c0,.4.3.6.6.6h28.4c.4,0,.6.3.6.6h0Z"/>
      <path class="st3" d="M94.4,223.2c0,11.4-9,18.5-22.8,18.5h-19c-.4,0-.6-.3-.6-.6v-35.7c0-.4.3-.6.6-.6h19c13.9,0,22.8,7,22.8,18.5h0v-.2ZM85.9,223.2c0-7.5-6-11.3-14.9-11.3h-9.9c-.4,0-.6.3-.6.6v21.4c0,.4.3.6.6.6h9.9c8.9,0,14.9-3.6,14.9-11.3h0v.2Z"/>
      <path class="st3" d="M129.8,233.9h-21.6c-.3,0-.4.2-.5.4l-3.5,7.2c0,.2-.4.4-.5.4h-7.6c-.4,0-.8-.5-.5-1l18.9-35.7c0-.2.4-.4.5-.4h8.5c.3,0,.4,0,.5.4l18.9,35.7c.3.4,0,1-.5,1h-7.7c-.3,0-.4-.2-.5-.4l-3.5-7.2c0-.2-.4-.4-.5-.4h-.4ZM126.3,226.2l-6.7-13.1c-.3-.4-.9-.4-1.1,0l-6.7,13.1c-.2.4,0,1,.5,1h13.3c.4,0,.8-.5.5-1h.3Z"/>
      <path class="st3" d="M178.5,212h-14.9c-.4,0-.6.3-.6.6v28.4c0,.4-.3.6-.6.6h-7.2c-.4,0-.6-.3-.6-.6v-28.4c0-.4-.3-.6-.6-.6h-14.8c-.4,0-.6-.3-.6-.6v-6c0-.4.3-.6.6-.6h39.4c.4,0,.6.3.6.6v6c0,.4-.3.6-.6.6h-.2Z"/>
      <path class="st3" d="M209.2,233.9h-21.6c-.3,0-.4.2-.5.4l-3.5,7.2c0,.2-.4.4-.5.4h-7.6c-.4,0-.8-.5-.5-1l18.9-35.7c0-.2.4-.4.5-.4h8.5c.3,0,.4,0,.5.4l18.9,35.7c.3.4,0,1-.5,1h-7.7c-.3,0-.4-.2-.5-.4l-3.5-7.2c0-.2-.4-.4-.5-.4h-.4ZM205.4,226.2l-6.7-13.1c-.3-.4-.9-.4-1.1,0l-6.7,13.1c-.2.4,0,1,.5,1h13.3c.4,0,.8-.5.5-1h.3Z"/>
    </g>
    <g>
      <path class="st4" d="M130,149.3l-40,39.4h129.4c1.6,0,3-1.3,3-3v-36.2c0-1.6-1.3-2.9-3-2.9h-82.4c-2.6,0-5.1,1-6.9,2.8h-.2Z"/>
      <path class="st4" d="M130,95.3l-36.1,35.6c-1.8,1.8-4.3,2.8-6.9,2.8H9.6c-1.6,0-3,1.3-3,3l.2,49.2c0,1.6,1.3,2.9,3,2.9h23.7c.8,0,1.5-.4,2-.9l52.6-50.4c1.8-1.8,4.3-2.8,6.8-2.8h124.3c1.6,0,3-1.3,3-3v-36.2c0-1.6-1.3-2.9-3-2.9h-82.4c-2.6,0-5.1,1-6.9,2.8h0Z"/>
      <path class="st4" d="M9.6,121.7h35.7c2.6,0,5.1-1,6.9-2.8l36-35.3c2-2,4.7-3.1,7.5-3.1h123.9c1.6,0,3-1.3,3-3v-36.2c0-1.6-1.3-2.9-3-2.9h-82.4c-2.6,0-5.1,1-6.9,2.8l-36.1,35.6c-1.8,1.8-4.3,2.8-6.9,2.8H9.7c-1.6,0-3,1.3-3,3v36.2c0,1.6,1.2,2.9,2.9,2.9Z"/>
    </g>
  </g>
</svg>